<?xml version="1.0" encoding="UTF-8"?>
<svg xmlns="http://www.w3.org/2000/svg" width="1024" height="1024" viewBox="0 0 1024 1024">
  <!-- Transparent, themable icon. Set CSS color to change fill (uses currentColor). -->
  <g fill="currentColor">
    <!-- Screen / digital frame -->
    <rect x="160" y="208" width="704" height="448" rx="32" ry="32"/>
    <!-- Inner image window (cutout) -->
    <rect x="200" y="248" width="624" height="368" rx="12" ry="12" fill="none" stroke="currentColor" stroke-width="40"/>
    <!-- Mountains -->
    <path d="M280 560 L420 392 L560 560 Z"/>
    <path d="M500 560 L620 448 L760 560 Z"/>
    <!-- Sun / Moon -->
    <circle cx="312" cy="332" r="44"/>
    <!-- Stand -->
    <path d="M462 704 h100 c12 0 22 10 22 22 v30 c0 12-10 22-22 22 h-100 c-12 0-22-10-22-22 v-30 c0-12 10-22 22-22z"/>
    <rect x="352" y="778" width="320" height="36" rx="18" ry="18"/>
  </g>
</svg>
